<svg width="100" height="100" viewBox="0 0 100 100" fill="none" xmlns="http://www.w3.org/2000/svg">
<path d="M56.5 12.4C52.3274 10.7308 47.6726 10.7308 43.5 12.4L14.715 23.925C13.3245 24.4811 12.1324 25.4407 11.2921 26.6802C10.4518 27.9198 10.0017 29.3825 10 30.88V69.11C9.99975 70.6092 10.4488 72.0741 11.2893 73.3156C12.1297 74.5571 13.323 75.5183 14.715 76.075L43.5 87.59C47.6726 89.2592 52.3274 89.2592 56.5 87.59L56.985 87.395C55.2126 86.4567 53.5732 85.2864 52.11 83.915C50.4919 84.3916 48.7603 84.3088 47.195 83.68L45.715 83.08C45.5961 83.0383 45.4777 82.995 45.36 82.95L16.57 71.435C16.1058 71.249 15.708 70.9279 15.4281 70.5135C15.1483 70.099 14.9991 69.6101 15 69.11V31.19L47.5 44.19V57.18C48.765 54.73 50.465 52.55 52.5 50.73V44.19L85 31.19V53.355C88.125 57.22 90 62.14 90 67.5V30.88C89.9993 29.3816 89.5497 27.9178 88.7093 26.6773C87.8689 25.4368 86.6762 24.4764 85.285 23.92L56.5 12.4ZM45.36 17.05C48.3402 15.8579 51.6648 15.8579 54.645 17.05L80.77 27.5L69.375 32.05L38.605 19.75L45.355 17.05H45.36ZM31.875 22.435L62.645 34.74L50 39.805L19.23 27.495L31.875 22.44V22.435ZM81.515 77.975C84.1646 74.4317 85.3737 70.0163 84.899 65.6175C84.4243 61.2186 82.3011 57.1628 78.9566 54.2664C75.6121 51.3699 71.2946 49.8477 66.8731 50.0062C62.4516 50.1647 58.2542 51.9921 55.1256 55.1206C51.9971 58.2491 50.1697 62.4465 50.0112 66.8681C49.8527 71.2896 51.3749 75.6071 54.2714 78.9516C57.1679 82.2961 61.2236 84.4193 65.6225 84.894C70.0213 85.3687 74.4367 84.1596 77.98 81.51L90.73 94.26C91.1988 94.7294 91.8348 94.9934 92.4982 94.9939C93.1616 94.9943 93.7981 94.7313 94.2675 94.2625C94.7369 93.7937 95.0009 93.1577 95.0014 92.4943C95.0019 91.8309 94.7388 91.1944 94.27 90.725L81.52 77.975H81.515ZM80 67.5C80 70.8152 78.683 73.9946 76.3388 76.3388C73.9946 78.683 70.8152 80 67.5 80C64.1848 80 61.0054 78.683 58.6612 76.3388C56.317 73.9946 55 70.8152 55 67.5C55 64.1848 56.317 61.0054 58.6612 58.6612C61.0054 56.317 64.1848 55 67.5 55C70.8152 55 73.9946 56.317 76.3388 58.6612C78.683 61.0054 80 64.1848 80 67.5Z" fill="black"/>
<path d="M50 12.5L15 27.5L50 42L67 35L83 27.5L58 14.5L50 12.5Z" fill="black" stroke="black"/>
</svg>
