<svg width="65" height="64" viewBox="0 0 65 64" fill="none" xmlns="http://www.w3.org/2000/svg">
<path d="M60.5 26.9355C62.0188 26.9355 63.25 25.7043 63.25 24.1855C63.25 22.6668 62.0188 21.4355 60.5 21.4355C58.9812 21.4355 57.75 22.6668 57.75 24.1855C57.75 25.7043 58.9812 26.9355 60.5 26.9355Z" fill="#FFCD69"/>
<path d="M39.8882 19.9817C41.407 19.9817 42.6382 18.7504 42.6382 17.2317C42.6382 15.7129 41.407 14.4817 39.8882 14.4817C38.3694 14.4817 37.1382 15.7129 37.1382 17.2317C37.1382 18.7504 38.3694 19.9817 39.8882 19.9817Z" fill="#D5EA79"/>
<path d="M16.5 6.75C18.0188 6.75 19.25 5.51878 19.25 4C19.25 2.48122 18.0188 1.25 16.5 1.25C14.9812 1.25 13.75 2.48122 13.75 4C13.75 5.51878 14.9812 6.75 16.5 6.75Z" fill="#FF7D97"/>
<path d="M45.7382 47.4073L4.19702 62.635C2.74377 63.1677 1.33228 61.7561 1.8649 60.3029L17.0926 18.7617C17.5496 17.515 19.1455 17.1632 20.0843 18.102L46.398 44.4157C47.3367 45.3544 46.9848 46.9503 45.7382 47.4073Z" fill="#98EAF9"/>
<path d="M5.45157 50.6096L5.39882 50.6623L1.86494 60.3028C1.33219 61.7561 2.74382 63.1676 4.19707 62.6349L13.9148 59.0727L5.45157 50.6096Z" fill="#FF7D97"/>
<path d="M7.89209 44.611L19.8891 56.6081L30.9492 52.491L12.0092 33.551L7.89209 44.611Z" fill="#FFCD69"/>
<path d="M13.9817 59.0482L5.45166 50.5183L7.89191 44.611L19.8889 56.6081L13.9817 59.0482Z" fill="white"/>
<path d="M30.9493 52.4911L12.0093 33.5511L14.1753 27.3696L37.1308 50.3251L30.9493 52.4911Z" fill="white"/>
<path d="M62.031 35.6776C62.3549 35.068 62.1233 34.3112 61.5136 33.9872C54.5095 30.2652 45.9654 31.1579 39.896 36.1455L37.8764 34.1259L41.1747 30.8275C41.6628 30.3394 41.6628 29.5479 41.1747 29.0596C40.6865 28.5715 39.8952 28.5715 39.4068 29.0596L36.1085 32.358L28.0609 24.3104C29.8914 21.8555 31.043 18.972 31.4061 15.9017C31.8245 12.3622 31.1586 8.82169 29.4801 5.66333C29.1563 5.05371 28.3993 4.82221 27.7898 5.14608C27.1801 5.47008 26.9486 6.22683 27.2725 6.83645C29.9648 11.9027 29.5434 17.9184 26.2716 22.5211L20.9683 17.2178C20.2242 16.4737 19.1664 16.1649 18.1387 16.3913C17.1109 16.6179 16.2812 17.343 15.9189 18.3312L0.691499 59.8725C0.275625 61.0071 0.547999 62.2429 1.40262 63.0974C1.99274 63.6875 2.76437 64 3.55924 64C3.91549 64 4.27636 63.9371 4.62748 63.8085L46.1686 48.5809C47.1567 48.2188 47.8818 47.3889 48.1086 46.3613C48.3351 45.3336 48.0262 44.2758 47.2821 43.5317L41.6746 37.9241C46.9562 33.7099 54.3038 32.987 60.3406 36.195C60.9501 36.519 61.7069 36.2872 62.031 35.6776ZM20.4094 55.3607L9.13934 44.0906L12.2621 35.5717L28.9283 52.2379L20.4094 55.3607ZM14.3011 57.5998L6.90022 50.1989L8.19097 46.6778L17.8222 56.309L14.3011 57.5998ZM3.76699 61.4611C3.47074 61.5698 3.26611 61.4253 3.17024 61.3296C3.07449 61.2339 2.93011 61.0291 3.03874 60.733L5.95173 52.7862L11.7137 58.5481L3.76699 61.4611ZM45.6672 45.8229C45.6422 45.9363 45.5623 46.1404 45.3083 46.2336L37.6237 49.0504L30.5141 41.9407C30.026 41.4525 29.2345 41.4526 28.7464 41.9406C28.2583 42.4287 28.2581 43.2202 28.7463 43.7083L35.0365 49.9987L31.5154 51.2894L13.2104 32.9845L14.5012 29.4634L20.7915 35.7536C21.0355 35.9977 21.3555 36.1197 21.6754 36.1197C21.9953 36.1197 22.3153 35.9976 22.5593 35.7536C23.0474 35.2655 23.0474 34.474 22.5592 33.9859L15.4496 26.8763L18.2664 19.1917C18.3596 18.9377 18.5637 18.8578 18.6772 18.8327C18.7117 18.825 18.7561 18.8185 18.8064 18.8185C18.9213 18.8185 19.0677 18.8525 19.2007 18.9857L45.5143 45.2993C45.7056 45.4907 45.6922 45.7096 45.6672 45.8229Z" fill="#0D1821"/>
<path d="M38.1992 9.9754C38.8896 9.9754 39.4492 9.41578 39.4492 8.7254C39.4492 7.67853 40.301 6.8269 41.3478 6.8269C43.7731 6.8269 45.7463 4.85378 45.7463 2.42841C45.7463 1.73803 45.1866 1.17841 44.4963 1.17841C43.8061 1.17841 43.2463 1.73803 43.2463 2.42841C43.2463 3.47528 42.3946 4.32691 41.3478 4.32691C38.9225 4.32691 36.9492 6.30003 36.9492 8.7254C36.9492 9.41578 37.509 9.9754 38.1992 9.9754Z" fill="#0D1821"/>
<path d="M49.29 21.7744C51.7949 21.7744 53.8328 19.7365 53.8328 17.2317C53.8328 16.1055 54.749 15.1891 55.8754 15.1891C56.5657 15.1891 57.1254 14.6295 57.1254 13.9391C57.1254 13.2487 56.5657 12.6891 55.8754 12.6891C53.3707 12.6891 51.3328 14.727 51.3328 17.2317C51.3328 18.358 50.4164 19.2744 49.29 19.2744C48.5998 19.2744 48.04 19.834 48.04 20.5244C48.04 21.2147 48.5998 21.7744 49.29 21.7744Z" fill="#0D1821"/>
<path d="M56.5 24.1855C56.5 26.3912 58.2944 28.1855 60.5 28.1855C62.7056 28.1855 64.5 26.3912 64.5 24.1855C64.5 21.9799 62.7056 20.1855 60.5 20.1855C58.2944 20.1855 56.5 21.9799 56.5 24.1855ZM60.5 22.6855C61.3271 22.6855 62 23.3584 62 24.1855C62 25.0127 61.3271 25.6855 60.5 25.6855C59.6729 25.6855 59 25.0127 59 24.1855C59 23.3584 59.6729 22.6855 60.5 22.6855Z" fill="#0D1821"/>
<path d="M39.8892 21.2317C42.0948 21.2317 43.8892 19.4373 43.8892 17.2317C43.8892 15.026 42.0948 13.2317 39.8892 13.2317C37.6835 13.2317 35.8892 15.026 35.8892 17.2317C35.8892 19.4373 37.6837 21.2317 39.8892 21.2317ZM39.8892 15.7317C40.7163 15.7317 41.3892 16.4045 41.3892 17.2317C41.3892 18.0588 40.7163 18.7317 39.8892 18.7317C39.062 18.7317 38.3892 18.0588 38.3892 17.2317C38.3892 16.4045 39.062 15.7317 39.8892 15.7317Z" fill="#0D1821"/>
<path d="M16.5 8C18.7056 8 20.5 6.20563 20.5 4C20.5 1.79437 18.7056 0 16.5 0C14.2944 0 12.5 1.79437 12.5 4C12.5 6.20563 14.2944 8 16.5 8ZM16.5 2.5C17.3271 2.5 18 3.17287 18 4C18 4.82713 17.3271 5.5 16.5 5.5C15.6729 5.5 15 4.82713 15 4C15 3.17287 15.6729 2.5 16.5 2.5Z" fill="#0D1821"/>
<path d="M57.0637 43.882C56.5757 43.3939 55.7844 43.3939 55.2958 43.8819C54.8077 44.37 54.8077 45.1615 55.2958 45.6497L56.4743 46.8282C56.7184 47.0723 57.0383 47.1943 57.3581 47.1943C57.678 47.1943 57.9979 47.0722 58.242 46.8282C58.7301 46.3401 58.7301 45.5485 58.242 45.0604L57.0637 43.882Z" fill="#0D1821"/>
<path d="M62.9557 49.7745C62.4675 49.2864 61.6762 49.2864 61.1879 49.7745C60.6997 50.2627 60.6997 51.0542 61.1879 51.5424L62.3664 52.7209C62.6105 52.965 62.9304 53.087 63.2503 53.087C63.5701 53.087 63.89 52.965 64.1341 52.7209C64.6223 52.2328 64.6223 51.4413 64.1341 50.953L62.9557 49.7745Z" fill="#0D1821"/>
<path d="M62.3664 43.8821L61.1879 45.0606C60.6997 45.5487 60.6997 46.3402 61.1879 46.8283C61.432 47.0724 61.7519 47.1944 62.0717 47.1944C62.3916 47.1944 62.7116 47.0723 62.9556 46.8283L64.1341 45.6498C64.6223 45.1617 64.6223 44.3702 64.1341 43.8821C63.646 43.3938 62.8545 43.3939 62.3664 43.8821Z" fill="#0D1821"/>
<path d="M56.4743 49.7745L55.2958 50.953C54.8077 51.4412 54.8077 52.2327 55.2958 52.7209C55.5399 52.965 55.8598 53.087 56.1797 53.087C56.4997 53.087 56.8194 52.965 57.0635 52.7209L58.242 51.5424C58.7301 51.0543 58.7301 50.2628 58.242 49.7745C57.7538 49.2864 56.9625 49.2864 56.4743 49.7745Z" fill="#0D1821"/>
<path d="M62.0719 3.67847C62.3917 3.67847 62.7117 3.55647 62.9557 3.31234L64.1342 2.13384C64.6224 1.64572 64.6224 0.854219 64.1342 0.366094C63.646 -0.122031 62.8545 -0.122031 62.3664 0.366094L61.1879 1.54459C60.6997 2.03272 60.6997 2.82422 61.1879 3.31234C61.4321 3.55647 61.7519 3.67847 62.0719 3.67847Z" fill="#0D1821"/>
<path d="M56.1788 9.57099C56.4988 9.57099 56.8186 9.44899 57.0627 9.20487L58.2412 8.02637C58.7293 7.53824 58.7293 6.74674 58.2412 6.25849C57.7529 5.77036 56.9617 5.77036 56.4733 6.25849L55.2948 7.43699C54.8067 7.92512 54.8067 8.71662 55.2948 9.20487C55.5391 9.44899 55.8589 9.57099 56.1788 9.57099Z" fill="#0D1821"/>
<path d="M62.9557 6.25855C62.4675 5.77042 61.6762 5.77042 61.1879 6.25855C60.6997 6.74667 60.6997 7.53817 61.1879 8.02642L62.3664 9.20492C62.6105 9.44905 62.9304 9.57105 63.2503 9.57105C63.5701 9.57105 63.89 9.44905 64.1341 9.20492C64.6223 8.7168 64.6223 7.9253 64.1341 7.43705L62.9557 6.25855Z" fill="#0D1821"/>
<path d="M56.4734 3.31234C56.7176 3.55647 57.0374 3.67847 57.3573 3.67847C57.6772 3.67847 57.9971 3.55647 58.2412 3.31234C58.7293 2.82422 58.7293 2.03272 58.2412 1.54459L57.0627 0.366094C56.5747 -0.122031 55.7834 -0.122031 55.2948 0.366094C54.8067 0.854219 54.8067 1.64572 55.2948 2.13384L56.4734 3.31234Z" fill="#0D1821"/>
<path d="M25.6523 37.5974C25.3236 37.5974 25.0011 37.7311 24.7686 37.9636C24.5361 38.1961 24.4023 38.5186 24.4023 38.8474C24.4023 39.1761 24.5361 39.4986 24.7686 39.7311C25.0011 39.9636 25.3236 40.0974 25.6523 40.0974C25.9811 40.0974 26.3036 39.9636 26.5361 39.7311C26.7686 39.4986 26.9023 39.1761 26.9023 38.8474C26.9023 38.5186 26.7686 38.1961 26.5361 37.9636C26.3036 37.7311 25.9811 37.5974 25.6523 37.5974Z" fill="#0D1821"/>
<path d="M43.8895 24.5769L42.9833 25.4831C42.4952 25.9713 42.4952 26.7628 42.9833 27.251C43.2274 27.4951 43.5473 27.6171 43.8672 27.6171C44.187 27.6171 44.5069 27.4951 44.751 27.251L45.6573 26.3448C46.1454 25.8566 46.1454 25.0651 45.6573 24.5769C45.169 24.0888 44.3778 24.0888 43.8895 24.5769Z" fill="#0D1821"/>
</svg>
