<svg width="80" height="80" viewBox="0 0 80 80" fill="none" xmlns="http://www.w3.org/2000/svg">
<path d="M72.5001 22.65H21.4001L18.0751 15C17.9079 14.6142 17.6462 14.2768 17.3141 14.019C16.982 13.7611 16.5902 13.5912 16.1751 13.525L7.90007 12.225C7.23703 12.1189 6.559 12.2805 6.01515 12.6744C5.47129 13.0682 5.10616 13.6619 5.00007 14.325C4.89398 14.988 5.05563 15.6661 5.44946 16.2099C5.84329 16.7538 6.43703 17.1189 7.10007 17.225L14.0251 18.35L17.5001 26L26.3501 56C26.5106 56.5314 26.8434 56.9943 27.296 57.3157C27.7487 57.6371 28.2954 57.7987 28.8501 57.775H29.4251C28.6056 58.648 28.0143 59.7098 27.7036 60.8662C27.393 62.0226 27.3725 63.2378 27.6441 64.4039C27.9157 65.5701 28.4709 66.6512 29.2606 67.5513C30.0502 68.4515 31.0498 69.1428 32.1706 69.5639C33.2915 69.9851 34.499 70.1231 35.686 69.9657C36.873 69.8082 38.0027 69.3603 38.9751 68.6615C39.9474 67.9627 40.7322 67.0348 41.2599 65.9599C41.7876 64.8851 42.0418 63.6966 42.0001 62.5C41.9894 60.74 41.341 59.0435 40.1751 57.725H52.2251C51.4568 58.6123 50.9146 59.6724 50.6449 60.8147C50.3751 61.957 50.3857 63.1477 50.6758 64.285C50.9659 65.4223 51.5269 66.4725 52.3109 67.3461C53.0948 68.2196 54.0785 68.8904 55.178 69.3014C56.2774 69.7123 57.46 69.8512 58.6247 69.706C59.7894 69.5609 60.9017 69.1361 61.8667 68.4679C62.8317 67.7997 63.6206 66.9079 64.1662 65.8687C64.7119 64.8295 64.9979 63.6737 65.0001 62.5C64.9894 60.74 64.341 59.0435 63.1751 57.725H63.3001C63.8304 57.7229 64.3463 57.5522 64.7732 57.2376C65.2001 56.9231 65.516 56.4809 65.6751 55.975L74.8751 25.975C74.9872 25.6043 75.0118 25.2126 74.9467 24.8308C74.8816 24.449 74.7287 24.0876 74.5001 23.775C74.2807 23.4414 73.9847 23.1652 73.6368 22.9695C73.2888 22.7737 72.899 22.6642 72.5001 22.65ZM34.7001 64.775C34.2441 64.775 33.7985 64.6394 33.4197 64.3856C33.0409 64.1317 32.7462 63.771 32.5729 63.3493C32.3995 62.9276 32.3555 62.4638 32.4463 62.017C32.5371 61.5702 32.7586 61.1604 33.0828 60.8398C33.4069 60.5191 33.8191 60.3021 34.2669 60.2162C34.7147 60.1303 35.1779 60.1794 35.5977 60.3573C36.0175 60.5352 36.375 60.8339 36.6247 61.2154C36.8744 61.5969 37.005 62.0441 37.0001 62.5C36.9935 63.1056 36.7483 63.6842 36.3176 64.1102C35.887 64.5361 35.3058 64.775 34.7001 64.775ZM57.7001 64.775C57.2441 64.775 56.7985 64.6394 56.4197 64.3856C56.0409 64.1317 55.7462 63.771 55.5729 63.3493C55.3995 62.9276 55.3555 62.4638 55.4463 62.017C55.5371 61.5702 55.7586 61.1604 56.0828 60.8398C56.4069 60.5191 56.8191 60.3021 57.2669 60.2162C57.7147 60.1303 58.1779 60.1794 58.5977 60.3573C59.0175 60.5352 59.375 60.8339 59.6247 61.2154C59.8744 61.5969 60.005 62.0441 60.0001 62.5C59.9935 63.1056 59.7483 63.6842 59.3176 64.1102C58.887 64.5361 58.3058 64.775 57.7001 64.775ZM61.4501 52.7H30.5251L23.0251 27.7H69.0251L61.4501 52.7Z" fill="black"/>
</svg>
